<?xml version="1.0" standalone="no"?><!DOCTYPE svg PUBLIC "-//W3C//DTD SVG 1.1//EN" "http://www.w3.org/Graphics/SVG/1.1/DTD/svg11.dtd"><svg t="1711644624325" class="icon" viewBox="0 0 1024 1024" version="1.1" xmlns="http://www.w3.org/2000/svg" p-id="2014" xmlns:xlink="http://www.w3.org/1999/xlink" width="256" height="256"><path d="M0 0m170.666667 0l682.666666 0q170.666667 0 170.666667 170.666667l0 682.666666q0 170.666667-170.666667 170.666667l-682.666666 0q-170.666667 0-170.666667-170.666667l0-682.666666q0-170.666667 170.666667-170.666667Z" fill="#3796DE" p-id="2015"></path><path d="M742.4 633.6l-12.8-51.2c83.2-19.2 115.2-44.8 115.2-57.6 0-25.6-115.2-83.2-332.8-83.2h-44.8c-6.4 12.8-19.2 25.6-25.6 38.4-6.4 19.2-12.8 32-19.2 44.8l19.2 38.4c44.8 83.2 102.4 153.6 147.2 198.4 51.2 44.8 76.8 57.6 89.6 51.2 6.4-6.4 19.2-38.4 0-102.4-12.8-64-51.2-147.2-96-230.4l44.8-25.6c51.2 83.2 83.2 172.8 102.4 243.2 25.6 102.4 0 140.8-25.6 160-6.4 6.4-19.2 6.4-32 6.4-25.6 0-64-12.8-115.2-64-51.2-51.2-108.8-128-160-211.2 0-6.4-6.4-6.4-6.4-12.8-57.6 134.4-64 224-44.8 230.4 12.8 6.4 51.2-6.4 108.8-70.4l38.4 38.4c-57.6 57.6-102.4 89.6-140.8 89.6-12.8 0-19.2 0-32-6.4-64-38.4-32-185.6 44.8-332.8-12.8-19.2-19.2-44.8-32-64-102.4 19.2-153.6 44.8-153.6 64 0 12.8 32 38.4 115.2 57.6l-12.8 51.2c-102.4-25.6-153.6-64-153.6-108.8 0-57.6 76.8-96 185.6-115.2-38.4-102.4-44.8-192 6.4-217.6 38.4-25.6 96 0 166.4 76.8L448 300.8c-57.6-57.6-96-70.4-102.4-64-19.2 6.4-12.8 70.4 19.2 166.4 25.6 0 44.8-6.4 70.4-6.4C524.8 262.4 633.6 147.2 704 192c25.6 12.8 51.2 51.2 25.6 160l-51.2-12.8c12.8-64 6.4-96 0-102.4-19.2-12.8-96 38.4-179.2 160 198.4 0 396.8 38.4 396.8 128 0 44.8-51.2 83.2-153.6 108.8z m-192-121.6c0 19.2-19.2 38.4-38.4 38.4s-38.4-19.2-38.4-38.4 19.2-38.4 38.4-38.4 38.4 19.2 38.4 38.4z m-160-44.8c0-6.4 6.4-6.4 6.4-12.8l6.4-6.4H384c0 6.4 6.4 12.8 6.4 19.2z" fill="#FFFFFF" p-id="2016"></path></svg>