<?xml version="1.0" encoding="UTF-8" standalone="no"?>
<svg
   enable-background="new 0 0 64 64"
   height="256px"
   version="1.1"
   viewBox="0 0 64 64"
   width="256px"
   xml:space="preserve"
   id="svg4"
   xmlns="http://www.w3.org/2000/svg"
   xmlns:svg="http://www.w3.org/2000/svg"><defs
     id="defs4" /><g
     id="Layer_1"><g
       id="g1"><circle
         cx="32"
         cy="32"
         fill="#76C2AF"
         r="32"
         id="circle1"
         style="fill:#a9a9a9" /></g><g
       opacity="0.2"
       id="g2"><path
         d="M47.839,30H40V18c0-2.209-1.791-4-4-4h-8c-2.209,0-4,1.791-4,4v12h-7.839c-2.722,0-3.483,1.865-1.69,4.145    L28.741,52.29c1.793,2.28,4.726,2.28,6.519,0l14.269-18.146C51.321,31.865,50.561,30,47.839,30z"
         fill="#231F20"
         id="path1"
         style="fill:#202020" /></g><g
       id="g3"><path
         d="M24,16c0-2.209,1.791-4,4-4h8c2.209,0,4,1.791,4,4v24c0,2.209-1.791,4-4,4h-8c-2.209,0-4-1.791-4-4V16z"
         fill="#FFFFFF"
         id="path2"
         style="fill:#ffffff" /></g><g
       id="g4"><path
         d="M47.839,28c2.722,0,3.483,1.865,1.69,4.145L35.259,50.29c-1.793,2.28-4.726,2.28-6.519,0L14.471,32.145    C12.679,29.865,13.439,28,16.161,28H47.839z"
         fill="#FFFFFF"
         id="path3"
         style="fill:#ffffff" /></g></g><g
     id="Layer_2" /></svg>
