<?xml version="1.0" standalone="no"?><!DOCTYPE svg PUBLIC "-//W3C//DTD SVG 1.1//EN" "http://www.w3.org/Graphics/SVG/1.1/DTD/svg11.dtd"><svg t="1711773898781" class="icon" viewBox="0 0 1024 1024" version="1.1" xmlns="http://www.w3.org/2000/svg" p-id="10190" xmlns:xlink="http://www.w3.org/1999/xlink" width="256" height="256"><path d="M959.522637 1023.611713H447.777231a63.968176 63.968176 0 0 1-71.004675-63.968176V175.393702A67.166585 67.166585 0 0 1 447.777231 107.587435h511.745406a63.968176 63.968176 0 0 1 63.968176 67.806267V959.643537a63.968176 63.968176 0 0 1-63.968176 63.968176z m0 0" fill="#69C0FF" p-id="10191"></path><path d="M834.784695 404.399771H565.478674a27.506316 27.506316 0 0 1 0-54.372949h269.306021a24.947589 24.947589 0 0 1 26.866633 26.866634 26.866634 26.866634 0 0 1-26.866633 27.506315z m0 161.199803H565.478674a26.866634 26.866634 0 1 1 0-53.733267h269.306021a24.947589 24.947589 0 0 1 26.866633 26.866633 26.866634 26.866634 0 0 1-26.866633 26.866634z m0 161.839485H565.478674a25.58727 25.58727 0 0 1-26.866633-23.668225 24.947589 24.947589 0 0 1 26.866633-26.866634h269.306021a24.947589 24.947589 0 0 1 26.866633 26.866634 26.866634 26.866634 0 0 1-26.866633 26.866634z m0 0" fill="#FFFFFF" p-id="10192"></path><path d="M578.911991 916.145178h-511.745406a63.968176 63.968176 0 0 1-63.968176-67.806267V67.287484a63.968176 63.968176 0 0 1 63.968176-67.166584h511.745406a63.968176 63.968176 0 0 1 67.806267 67.166584v781.051427a67.166585 67.166585 0 0 1-67.806267 67.806267z m0 0" fill="#1890FF" p-id="10193"></path><path d="M458.012139 296.293554H191.904527a24.947589 24.947589 0 0 1-26.866633-26.866634 24.947589 24.947589 0 0 1 26.866633-26.866634h266.107612a25.58727 25.58727 0 0 1 26.866634 26.866634 26.866634 26.866634 0 0 1-26.866634 26.866634z m0 161.839485H191.904527a24.947589 24.947589 0 0 1-26.866633-26.866634 24.947589 24.947589 0 0 1 26.866633-26.866634h266.107612a24.947589 24.947589 0 0 1 26.866634 26.866634 26.866634 26.866634 0 0 1-26.866634 26.866634z m0 161.199803H191.904527a24.947589 24.947589 0 0 1-26.866633-26.866634 24.947589 24.947589 0 0 1 26.866633-26.866634h266.107612a25.58727 25.58727 0 0 1 26.866634 26.866634 26.866634 26.866634 0 0 1-26.866634 26.866634z m0 0" fill="#FFFFFF" p-id="10194"></path></svg>