<?xml version="1.0" standalone="no"?><!DOCTYPE svg PUBLIC "-//W3C//DTD SVG 1.1//EN" "http://www.w3.org/Graphics/SVG/1.1/DTD/svg11.dtd"><svg t="1711775210968" class="icon" viewBox="0 0 1024 1024" version="1.1" xmlns="http://www.w3.org/2000/svg" p-id="14526" xmlns:xlink="http://www.w3.org/1999/xlink" width="256" height="256"><path d="M819.2 1024H204.8c-112.64 0-204.8-92.16-204.8-204.8V204.8c0-112.64 92.16-204.8 204.8-204.8h614.4c112.64 0 204.8 92.16 204.8 204.8v614.4c0 112.64-92.16 204.8-204.8 204.8z" fill="#FF7F65" p-id="14527" data-spm-anchor-id="a313x.manage_type_mylikes.0.i21.2b703a81hSJJuS" class="selected"></path><path d="M716.8 547.84c-5.12 107.52-92.16 194.56-204.8 194.56s-204.8-92.16-204.8-199.68c0-107.52 87.04-194.56 194.56-199.68v97.28L716.8 317.44 501.76 184.32v97.28c-138.24 5.12-250.88 117.76-250.88 261.12s117.76 261.12 261.12 261.12c138.24 0 256-112.64 261.12-250.88H716.8z m0 0" fill="#FFFFFF" p-id="14528"></path></svg>