<?xml version="1.0" standalone="no"?><!DOCTYPE svg PUBLIC "-//W3C//DTD SVG 1.1//EN" "http://www.w3.org/Graphics/SVG/1.1/DTD/svg11.dtd"><svg t="1711776511892" class="icon" viewBox="0 0 1024 1024" version="1.1" xmlns="http://www.w3.org/2000/svg" p-id="8199" xmlns:xlink="http://www.w3.org/1999/xlink" width="256" height="256"><path d="M0 0m170.666667 0l682.666666 0q170.666667 0 170.666667 170.666667l0 682.666666q0 170.666667-170.666667 170.666667l-682.666666 0q-170.666667 0-170.666667-170.666667l0-682.666666q0-170.666667 170.666667-170.666667Z" fill="#FD7070" p-id="8200"></path><path d="M713.386667 713.386667a37.102933 37.102933 0 0 1-51.2 0l-163.84-163.84-163.84 163.84a36.215467 36.215467 0 0 1-51.2-51.2l163.84-163.84-163.84-163.84a36.215467 36.215467 0 0 1 51.2-51.2l163.84 163.84 163.84-163.84a36.215467 36.215467 0 0 1 51.2 51.2l-163.84 163.84 163.84 163.84a31.982933 31.982933 0 0 1 0 51.2m0 0z" fill="#FFFFFF" p-id="8201"></path></svg>