<?xml version="1.0" encoding="UTF-8" standalone="no"?>
<svg
   t="1711777193916"
   class="icon"
   viewBox="0 0 1024 1024"
   version="1.1"
   p-id="22837"
   width="256"
   height="256"
   id="svg1"
   xmlns="http://www.w3.org/2000/svg"
   xmlns:svg="http://www.w3.org/2000/svg">
  <defs
     id="defs1" />
  <path
     d="M727.1 296.9c-19.8-19.8-51.9-19.8-71.7 0L511.9 440.3 368.6 296.9l-6.3-5.3c-19.8-14.3-47.6-12.5-65.4 5.3l-5.3 6.3c-14.3 19.8-12.5 47.6 5.3 65.4l143.4 143.3-143.4 143.5c-19.8 19.8-19.8 51.9 0 71.7 19.8 19.8 51.9 19.8 71.7 0l143.3-143.4 143.4 143.4 6.3 5.3c19.8 14.3 47.6 12.5 65.4-5.3l5.3-6.3c14.3-19.8 12.5-47.6-5.3-65.4L583.6 511.9 727 368.6c19.8-19.8 19.8-51.9 0.1-71.7zM512 5.1c279.9 0 506.9 226.9 506.9 506.9s-227 506.9-506.9 506.9S5.1 791.9 5.1 512 232.1 5.1 512 5.1z"
     fill="#D4237A"
     p-id="22838"
     id="path1"
     style="fill:#626262" />
</svg>
