<?xml version="1.0" standalone="no"?><!DOCTYPE svg PUBLIC "-//W3C//DTD SVG 1.1//EN" "http://www.w3.org/Graphics/SVG/1.1/DTD/svg11.dtd"><svg t="1711776307711" class="icon" viewBox="0 0 1024 1024" version="1.1" xmlns="http://www.w3.org/2000/svg" p-id="5429" xmlns:xlink="http://www.w3.org/1999/xlink" width="256" height="256"><path d="M0 0m213.333333 0l597.333334 0q213.333333 0 213.333333 213.333333l0 597.333334q0 213.333333-213.333333 213.333333l-597.333334 0q-213.333333 0-213.333333-213.333333l0-597.333334q0-213.333333 213.333333-213.333333Z" fill="#F19B53" p-id="5430"></path><path d="M544 170.666667c53.013333 0 96 36.842667 96 82.282666V362.666667h181.333333a96 96 0 0 1 95.893334 91.477333L917.333333 458.666667v42.666666a96 96 0 0 1-85.333333 95.402667v166.613333C832 813.034667 789.013333 853.333333 736 853.333333h-426.666667c-53.013333 0-96-40.298667-96-90.005333v-166.570667A96 96 0 0 1 128 501.333333v-42.666666a96 96 0 0 1 96-96H405.333333v-109.717334c0-44.074667 40.405333-80.042667 91.2-82.176L501.333333 170.666667zM768 597.333333H277.333333v163.2c0 14.976 12.693333 27.264 28.928 28.672L309.333333 789.333333h64v-74.666666a21.333333 21.333333 0 0 1 42.666667 0V789.333333h85.333333v-74.666666a21.333333 21.333333 0 0 1 42.666667 0V789.333333h85.333333v-74.666666a21.333333 21.333333 0 0 1 42.666667 0V789.333333h64c16.64 0 30.293333-11.413333 31.850667-26.026666l0.149333-2.773334V597.333333z m53.333333-170.666666h-597.333333A32 32 0 0 0 192 458.666667v42.666666a32 32 0 0 0 32 32h597.333333a32 32 0 0 0 32-32v-42.666666a32 32 0 0 0-32-32z m-277.333333-192h-42.666667c-17.664 0-32 12.544-32 28.010666V362.666667h106.666667v-100.010667c0-13.653333-11.157333-25.002667-25.92-27.477333l-2.986667-0.384L544 234.666667z" fill="#FFFFFF" p-id="5431"></path></svg>