<?xml version="1.0" standalone="no"?><!DOCTYPE svg PUBLIC "-//W3C//DTD SVG 1.1//EN" "http://www.w3.org/Graphics/SVG/1.1/DTD/svg11.dtd"><svg t="1711776397335" class="icon" viewBox="0 0 1024 1024" version="1.1" xmlns="http://www.w3.org/2000/svg" p-id="5594" xmlns:xlink="http://www.w3.org/1999/xlink" width="256" height="256"><path d="M1023.592882 900.550843c0 68.179276-62.444975 123.449157-139.46824 123.449157H139.661694c-77.02904 0-139.471128-55.269881-139.471128-123.449157V124.041066C0.190566 55.864677 62.632654 0.594797 139.661694 0.594797h744.462948c77.023265 0 139.46824 55.272768 139.46824 123.446269v776.509777z" fill="#AECD6C" p-id="5595"></path><path d="M659.401267 483.272193c-20.211533-15.88049-220.170005-183.347479-220.170005-183.347479l-13.836238-11.309796s-33.325931-18.285663-33.805232 21.655214v404.051645c0.482189 39.940877 33.805233 21.655214 33.805232 21.655214l13.836238-11.309796s199.958472-167.458326 220.170005-183.335929c19.521454-15.337666 19.068138-28.163328 19.016165-29.029537 0.05486-0.866209 0.505288-13.694757-19.016165-29.029536z" fill="#FFFFFF" p-id="5596"></path></svg>