<?xml version="1.0" encoding="UTF-8" standalone="no"?>
<svg
   t="1711772958136"
   class="icon"
   viewBox="0 0 1024 1024"
   version="1.1"
   p-id="7040"
   width="256"
   height="256"
   id="svg2"
   xmlns="http://www.w3.org/2000/svg"
   xmlns:svg="http://www.w3.org/2000/svg">
  <defs
     id="defs2" />
  <path
     d="M819.2 0a102.4 102.4 0 0 1 102.4 102.4v716.8a102.4 102.4 0 0 1-102.4 102.4H204.8a102.4 102.4 0 0 1-102.4-102.4V102.4a102.4 102.4 0 0 1 102.4-102.4h614.4z m-307.2 153.6L307.2 358.4h153.6v204.8h102.4V358.4h153.6l-204.8-204.8z"
     fill="#FFCF00"
     p-id="7041"
     id="path1"
     style="fill:#c6c6c6" />
  <path
     d="M87.3984 343.3984L512 768l424.6016-424.6016A51.2 51.2 0 0 1 1024 379.5968V870.4a153.6 153.6 0 0 1-153.6 153.6H153.6a153.6 153.6 0 0 1-153.6-153.6V379.5968a51.2 51.2 0 0 1 87.3984-36.1984z"
     fill="#F99B0F"
     opacity=".6"
     p-id="7042"
     id="path2"
     style="fill:#a7a7a7" />
</svg>
