<?xml version="1.0" standalone="no"?><!DOCTYPE svg PUBLIC "-//W3C//DTD SVG 1.1//EN" "http://www.w3.org/Graphics/SVG/1.1/DTD/svg11.dtd"><svg t="1711645846186" class="icon" viewBox="0 0 1024 1024" version="1.1" xmlns="http://www.w3.org/2000/svg" p-id="3754" xmlns:xlink="http://www.w3.org/1999/xlink" width="256" height="256"><path d="M0 0m170.666667 0l682.666666 0q170.666667 0 170.666667 170.666667l0 682.666666q0 170.666667-170.666667 170.666667l-682.666666 0q-170.666667 0-170.666667-170.666667l0-682.666666q0-170.666667 170.666667-170.666667Z" fill="#527BE6" p-id="3755"></path><path d="M464.384 824.277333c-33.877333 0-59.477333-27.008-59.477333-62.762666v-194.986667L272.298667 367.018667c-17.493333-23.850667-21.205333-52.181333-9.642667-75.093334C274.090667 269.482667 298.666667 256 328.362667 256h367.36c29.610667 0 54.101333 13.397333 65.578666 35.84 11.605333 22.784 7.978667 50.986667-9.770666 75.52l-132.437334 199.168v142.805333c0 32.426667-21.333333 64.853333-50.773333 76.970667l-78.762667 32.768c-8.021333 3.413333-16.426667 5.12-25.173333 5.205333z" fill="#FFFFFF" p-id="3756"></path></svg>