<?xml version="1.0" standalone="no"?><!DOCTYPE svg PUBLIC "-//W3C//DTD SVG 1.1//EN" "http://www.w3.org/Graphics/SVG/1.1/DTD/svg11.dtd"><svg t="1711776451068" class="icon" viewBox="0 0 1024 1024" version="1.1" xmlns="http://www.w3.org/2000/svg" p-id="6433" xmlns:xlink="http://www.w3.org/1999/xlink" width="256" height="256"><path d="M0 0m204.8 0l614.4 0q204.8 0 204.8 204.8l0 614.4q0 204.8-204.8 204.8l-614.4 0q-204.8 0-204.8-204.8l0-614.4q0-204.8 204.8-204.8Z" fill="#FF9A2D" p-id="6434"></path><path d="M307.2 307.2m51.2 0l0 0q51.2 0 51.2 51.2l0 341.333333q0 51.2-51.2 51.2l0 0q-51.2 0-51.2-51.2l0-341.333333q0-51.2 51.2-51.2Z" fill="#FFFFFF" p-id="6435"></path><path d="M614.4 307.2m51.2 0l0 0q51.2 0 51.2 51.2l0 341.333333q0 51.2-51.2 51.2l0 0q-51.2 0-51.2-51.2l0-341.333333q0-51.2 51.2-51.2Z" fill="#FFFFFF" p-id="6436"></path></svg>