<?xml version="1.0" standalone="no"?><!DOCTYPE svg PUBLIC "-//W3C//DTD SVG 1.1//EN" "http://www.w3.org/Graphics/SVG/1.1/DTD/svg11.dtd"><svg t="1711645601760" class="icon" viewBox="0 0 1024 1024" version="1.1" xmlns="http://www.w3.org/2000/svg" p-id="3606" xmlns:xlink="http://www.w3.org/1999/xlink" width="256" height="256"><path d="M512 512m-512 0a512 512 0 1 0 1024 0 512 512 0 1 0-1024 0Z" fill="#2D8CF0" p-id="3607"></path><path d="M556.786526 870.4l44.840421-179.2h109.514106A265.539368 265.539368 0 0 0 780.826947 512c0-122.341053-81.92-228.729263-193.751579-261.820632a43.331368 43.331368 0 0 1-30.288842-41.930105c0-28.995368 27.648-51.307789 55.511579-43.115789 149.072842 43.870316 258.101895 183.781053 258.101895 346.866526 0 180.870737-139.533474 333.877895-313.613474 358.4zM153.6 512c0-180.816842 139.533474-333.877895 313.613474-358.4l-44.840421 179.2H312.858947A265.539368 265.539368 0 0 0 243.173053 512c0 122.341053 81.92 228.729263 193.751579 261.766737a43.439158 43.439158 0 0 1 30.288842 41.984c0 28.995368-27.648 51.307789-55.511579 43.115789-149.072842-43.870316-258.101895-183.781053-258.101895-346.866526z" fill="#FFFFFF" p-id="3608"></path></svg>