<?xml version="1.0" standalone="no"?><!DOCTYPE svg PUBLIC "-//W3C//DTD SVG 1.1//EN" "http://www.w3.org/Graphics/SVG/1.1/DTD/svg11.dtd"><svg t="1711777551438" class="icon" viewBox="0 0 1024 1024" version="1.1" xmlns="http://www.w3.org/2000/svg" p-id="56949" xmlns:xlink="http://www.w3.org/1999/xlink" width="256" height="256"><path d="M375.6 502C377.2 372 380 207.6 604 75.6c5.6-4 2.8-12.8-4-11.6C171.6 131.6 136.4 424.8 135.6 502H48c-13.2 0-20.8 15.2-12.8 25.6l206.4 267.2c6.4 8.4 18.8 8.4 25.2 0l208-267.2c8-10.4 0.8-26-12.8-26H375.6z" fill="#3BC74A" p-id="56950"></path><path d="M648.4 522C646.4 652 643.6 816 420 948c-5.6 4-2.8 12.8 4 11.6 428.4-67.6 463.6-360.4 464.4-437.6H976c13.2 0 20.8-15.2 12.8-25.6l-206.4-267.2c-6.4-8.4-18.8-8.4-25.2 0l-208 267.2c-8 10.4-0.8 26 12.8 26h86.4z" fill="#00CBF9" p-id="56951"></path></svg>