<?xml version="1.0" standalone="no"?><!DOCTYPE svg PUBLIC "-//W3C//DTD SVG 1.1//EN" "http://www.w3.org/Graphics/SVG/1.1/DTD/svg11.dtd"><svg t="1711645972212" class="icon" viewBox="0 0 1024 1024" version="1.1" xmlns="http://www.w3.org/2000/svg" p-id="4604" xmlns:xlink="http://www.w3.org/1999/xlink" width="256" height="256"><path d="M0 0m113.777778 0l796.444444 0q113.777778 0 113.777778 113.777778l0 796.444444q0 113.777778-113.777778 113.777778l-796.444444 0q-113.777778 0-113.777778-113.777778l0-796.444444q0-113.777778 113.777778-113.777778Z" fill="#4C7BFF" p-id="4605"></path><path d="M227.555556 284.444444m56.888888 0l113.777778 0q56.888889 0 56.888889 56.888889l0 0q0 56.888889-56.888889 56.888889l-113.777778 0q-56.888889 0-56.888888-56.888889l0 0q0-56.888889 56.888888-56.888889Z" fill="#FFFFFF" p-id="4606"></path><path d="M227.555556 455.111111m56.888888 0l455.111112 0q56.888889 0 56.888888 56.888889l0 0q0 56.888889-56.888888 56.888889l-455.111112 0q-56.888889 0-56.888888-56.888889l0 0q0-56.888889 56.888888-56.888889Z" fill="#FFFFFF" p-id="4607"></path><path d="M227.555556 625.777778m56.888888 0l455.111112 0q56.888889 0 56.888888 56.888889l0 0q0 56.888889-56.888888 56.888889l-455.111112 0q-56.888889 0-56.888888-56.888889l0 0q0-56.888889 56.888888-56.888889Z" fill="#FFFFFF" p-id="4608"></path></svg>