<?xml version="1.0" standalone="no"?><!DOCTYPE svg PUBLIC "-//W3C//DTD SVG 1.1//EN" "http://www.w3.org/Graphics/SVG/1.1/DTD/svg11.dtd"><svg t="1711776713558" class="icon" viewBox="0 0 1024 1024" version="1.1" xmlns="http://www.w3.org/2000/svg" p-id="12163" xmlns:xlink="http://www.w3.org/1999/xlink" width="256" height="256"><path d="M709.120628 168.96328c56.214584 33.217708 126.482813 34.495313 183.975001 3.832812 45.99375 51.104167 80.489063 112.429167 102.208334 177.58698-89.432292 56.214584-114.984376 175.031772-58.769792 264.464064 15.33125 24.274479 35.772917 43.438542 58.769792 58.769792-11.498438 33.217708-25.552083 63.880209-42.160938 94.542709-16.608854 29.384896-37.050521 57.492188-60.047396 83.044271-93.265105-48.548959-209.527084-12.776042-258.076043 80.489063-12.776042 25.552083-20.441667 52.381771-21.719271 81.766667a500.820836 500.820836 0 0 1-204.416667 0c-3.832813-106.041146-93.265105-187.807813-198.028647-183.975001-28.107292 1.277604-56.214584 8.943229-81.766667 21.719271-45.99375-51.104167-80.489063-112.429167-102.208334-177.58698C116.312292 617.402344 143.14198 499.86276 86.927396 410.430468c-15.33125-24.274479-35.772917-44.716146-58.769792-60.047396 10.220833-33.217708 24.274479-63.880209 42.160938-93.265104 16.608854-29.384896 37.050521-57.492188 60.047396-84.321876 93.265105 48.548959 209.527084 12.776042 258.076043-80.489063 12.776042-25.552083 20.441667-52.381771 21.719271-81.766667a500.820836 500.820836 0 0 1 204.416667 0c2.555208 66.435417 38.328125 126.482813 94.542709 158.422918z" fill="#2F77F1" p-id="12164"></path><path d="M511.091981 704.279428c-106.041146 0-191.640626-85.59948-191.640625-191.640626s85.59948-191.640626 191.640625-191.640626 191.640626 85.59948 191.640626 191.640626-85.59948 191.640626-191.640626 191.640626z m0-332.177085c-77.933855 0-140.536459 62.602604-140.536459 140.536459s62.602604 140.536459 140.536459 140.536459 140.536459-62.602604 140.536459-140.536459-62.602604-140.536459-140.536459-140.536459z" fill="#AFFCFE" p-id="12165"></path></svg>