<?xml version="1.0" standalone="no"?><!DOCTYPE svg PUBLIC "-//W3C//DTD SVG 1.1//EN" "http://www.w3.org/Graphics/SVG/1.1/DTD/svg11.dtd"><svg t="1711772891269" class="icon" viewBox="0 0 1024 1024" version="1.1" xmlns="http://www.w3.org/2000/svg" p-id="6879" xmlns:xlink="http://www.w3.org/1999/xlink" width="256" height="256"><path d="M0 0m186.181818 0l651.636364 0q186.181818 0 186.181818 186.181818l0 651.636364q0 186.181818-186.181818 186.181818l-651.636364 0q-186.181818 0-186.181818-186.181818l0-651.636364q0-186.181818 186.181818-186.181818Z" fill="#F1C46B" p-id="6880"></path><path d="M514.218667 279.272727A234.945939 234.945939 0 1 1 279.272727 514.218667 234.945939 234.945939 0 0 1 514.218667 279.272727z m146.338909 125.517576l-255.767273 255.782788a182.737455 182.737455 0 0 0 255.813818-255.798303z m-146.338909-73.309091a182.737455 182.737455 0 0 0-146.338909 292.165818l255.829333-255.767272a181.930667 181.930667 0 0 0-109.490424-36.398546z" fill="#FBFBFB" p-id="6881"></path></svg>