<?xml version="1.0" encoding="UTF-8" standalone="no"?>
<svg
   t="1711776595365"
   class="icon"
   viewBox="0 0 1024 1024"
   version="1.1"
   p-id="10650"
   width="256"
   height="256"
   id="svg3"
   xmlns="http://www.w3.org/2000/svg"
   xmlns:svg="http://www.w3.org/2000/svg">
  <defs
     id="defs3" />
  <path
     d="M0 0m204.8 0l614.4 0q204.8 0 204.8 204.8l0 614.4q0 204.8-204.8 204.8l-614.4 0q-204.8 0-204.8-204.8l0-614.4q0-204.8 204.8-204.8Z"
     fill="#F2BE81"
     p-id="10651"
     id="path1"
     style="fill:#c7c7c7" />
  <path
     d="M822.8864 607.6928L548.7104 243.456a32.7168 32.7168 0 0 0-53.4528-0.8704L206.592 606.976a32.8192 32.8192 0 0 0 26.5216 52.1728h135.5776v168.96a47.0016 47.0016 0 0 0 46.9504 46.9504h196.0448a47.0016 47.0016 0 0 0 46.9504-46.9504v-168.96h136.8576a32.9216 32.9216 0 0 0 27.392-51.2z m0 0"
     fill="#FFFFFF"
     p-id="10652"
     id="path2"
     style="fill:#ffffff" />
  <path
     d="M235.264 224.3072h556.3904a35.84 35.84 0 0 0 36.9664-35.1744 35.84 35.84 0 0 0-36.9664-35.1744H235.264a35.84 35.84 0 0 0-36.9152 35.1744 35.84 35.84 0 0 0 36.9152 35.1744z m0 0"
     fill="#FFFFFF"
     p-id="10653"
     id="path3"
     style="fill:#ffffff" />
</svg>
